<mxfile host="app.diagrams.net" agent="Mozilla/5.0 (Windows NT 10.0; Win64; x64) AppleWebKit/537.36 (KHTML, like Gecko) Chrome/132.0.0.0 Safari/537.36" version="26.0.9">
  <diagram name="Page-1" id="2YBvvXClWsGukQMizWep">
    <mxGraphModel dx="2200" dy="1210" grid="1" gridSize="10" guides="1" tooltips="1" connect="1" arrows="0" fold="1" page="1" pageScale="1" pageWidth="850" pageHeight="1100" math="0" shadow="0">
      <root>
        <mxCell id="0" />
        <mxCell id="1" parent="0" />
        <mxCell id="R4k9TBgRJw4UW4_P1H2B-2" value="Validar token" style="shape=umlFrame;whiteSpace=wrap;html=1;pointerEvents=0;recursiveResize=0;container=1;collapsible=0;width=160;" vertex="1" parent="1">
          <mxGeometry x="40" y="40" width="880" height="1060" as="geometry" />
        </mxCell>
        <mxCell id="R4k9TBgRJw4UW4_P1H2B-3" value="AuthMiddleware" style="shape=umlLifeline;perimeter=lifelinePerimeter;whiteSpace=wrap;html=1;container=1;dropTarget=0;collapsible=0;recursiveResize=0;outlineConnect=0;portConstraint=eastwest;newEdgeStyle={&quot;curved&quot;:0,&quot;rounded&quot;:0};" vertex="1" parent="R4k9TBgRJw4UW4_P1H2B-2">
          <mxGeometry x="140" y="50" width="100" height="950" as="geometry" />
        </mxCell>
        <mxCell id="R4k9TBgRJw4UW4_P1H2B-31" value="" style="html=1;points=[[0,0,0,0,5],[0,1,0,0,-5],[1,0,0,0,5],[1,1,0,0,-5]];perimeter=orthogonalPerimeter;outlineConnect=0;targetShapes=umlLifeline;portConstraint=eastwest;newEdgeStyle={&quot;curved&quot;:0,&quot;rounded&quot;:0};" vertex="1" parent="R4k9TBgRJw4UW4_P1H2B-3">
          <mxGeometry x="50" y="580" width="10" height="30" as="geometry" />
        </mxCell>
        <mxCell id="R4k9TBgRJw4UW4_P1H2B-29" style="edgeStyle=orthogonalEdgeStyle;rounded=0;orthogonalLoop=1;jettySize=auto;html=1;curved=0;exitX=1;exitY=1;exitDx=0;exitDy=-5;exitPerimeter=0;endArrow=open;endFill=0;dashed=1;" edge="1" parent="R4k9TBgRJw4UW4_P1H2B-3" source="R4k9TBgRJw4UW4_P1H2B-21" target="R4k9TBgRJw4UW4_P1H2B-9">
          <mxGeometry relative="1" as="geometry">
            <Array as="points">
              <mxPoint x="80" y="485" />
              <mxPoint x="80" y="510" />
            </Array>
          </mxGeometry>
        </mxCell>
        <mxCell id="R4k9TBgRJw4UW4_P1H2B-30" value="return dados_token" style="edgeLabel;html=1;align=center;verticalAlign=middle;resizable=0;points=[];" vertex="1" connectable="0" parent="R4k9TBgRJw4UW4_P1H2B-29">
          <mxGeometry x="-0.0371" y="-1" relative="1" as="geometry">
            <mxPoint x="41" as="offset" />
          </mxGeometry>
        </mxCell>
        <mxCell id="R4k9TBgRJw4UW4_P1H2B-21" value="" style="html=1;points=[[0,0,0,0,5],[0,1,0,0,-5],[1,0,0,0,5],[1,1,0,0,-5]];perimeter=orthogonalPerimeter;outlineConnect=0;targetShapes=umlLifeline;portConstraint=eastwest;newEdgeStyle={&quot;curved&quot;:0,&quot;rounded&quot;:0};" vertex="1" parent="R4k9TBgRJw4UW4_P1H2B-3">
          <mxGeometry x="50" y="310" width="10" height="180" as="geometry" />
        </mxCell>
        <mxCell id="R4k9TBgRJw4UW4_P1H2B-10" value="" style="html=1;points=[[0,0,0,0,5],[0,1,0,0,-5],[1,0,0,0,5],[1,1,0,0,-5]];perimeter=orthogonalPerimeter;outlineConnect=0;targetShapes=umlLifeline;portConstraint=eastwest;newEdgeStyle={&quot;curved&quot;:0,&quot;rounded&quot;:0};" vertex="1" parent="R4k9TBgRJw4UW4_P1H2B-3">
          <mxGeometry x="50" y="80" width="10" height="170" as="geometry" />
        </mxCell>
        <mxCell id="R4k9TBgRJw4UW4_P1H2B-9" value="" style="html=1;points=[[0,0,0,0,5],[0,1,0,0,-5],[1,0,0,0,5],[1,1,0,0,-5]];perimeter=orthogonalPerimeter;outlineConnect=0;targetShapes=umlLifeline;portConstraint=eastwest;newEdgeStyle={&quot;curved&quot;:0,&quot;rounded&quot;:0};" vertex="1" parent="R4k9TBgRJw4UW4_P1H2B-3">
          <mxGeometry x="45" y="60" width="10" height="870" as="geometry" />
        </mxCell>
        <mxCell id="R4k9TBgRJw4UW4_P1H2B-15" style="edgeStyle=orthogonalEdgeStyle;rounded=0;orthogonalLoop=1;jettySize=auto;html=1;curved=0;dashed=1;endArrow=open;endFill=0;" edge="1" parent="R4k9TBgRJw4UW4_P1H2B-3" source="R4k9TBgRJw4UW4_P1H2B-10" target="R4k9TBgRJw4UW4_P1H2B-9">
          <mxGeometry relative="1" as="geometry">
            <Array as="points">
              <mxPoint x="80" y="165" />
              <mxPoint x="80" y="200" />
            </Array>
          </mxGeometry>
        </mxCell>
        <mxCell id="R4k9TBgRJw4UW4_P1H2B-16" value="return False" style="edgeLabel;html=1;align=center;verticalAlign=middle;resizable=0;points=[];" vertex="1" connectable="0" parent="R4k9TBgRJw4UW4_P1H2B-15">
          <mxGeometry x="0.4" relative="1" as="geometry">
            <mxPoint x="21" y="-15" as="offset" />
          </mxGeometry>
        </mxCell>
        <mxCell id="R4k9TBgRJw4UW4_P1H2B-11" value="VerificarExistenciaToken(request.header)" style="html=1;align=left;spacingLeft=2;endArrow=block;rounded=0;edgeStyle=orthogonalEdgeStyle;curved=0;rounded=0;" edge="1" target="R4k9TBgRJw4UW4_P1H2B-10" parent="R4k9TBgRJw4UW4_P1H2B-3">
          <mxGeometry relative="1" as="geometry">
            <mxPoint x="55" y="60" as="sourcePoint" />
            <Array as="points">
              <mxPoint x="85" y="90" />
            </Array>
          </mxGeometry>
        </mxCell>
        <mxCell id="R4k9TBgRJw4UW4_P1H2B-20" value="return Token" style="html=1;verticalAlign=bottom;endArrow=open;dashed=1;endSize=8;rounded=0;edgeStyle=orthogonalEdgeStyle;" edge="1" parent="R4k9TBgRJw4UW4_P1H2B-3" source="R4k9TBgRJw4UW4_P1H2B-10" target="R4k9TBgRJw4UW4_P1H2B-9">
          <mxGeometry x="-0.0773" y="20" relative="1" as="geometry">
            <mxPoint x="150" y="260" as="sourcePoint" />
            <mxPoint x="70" y="260" as="targetPoint" />
            <Array as="points">
              <mxPoint x="80" y="250" />
              <mxPoint x="80" y="270" />
            </Array>
            <mxPoint as="offset" />
          </mxGeometry>
        </mxCell>
        <mxCell id="R4k9TBgRJw4UW4_P1H2B-22" value="CapturarDadosToken(Token)" style="html=1;align=left;spacingLeft=2;endArrow=block;rounded=0;edgeStyle=orthogonalEdgeStyle;curved=0;rounded=0;" edge="1" target="R4k9TBgRJw4UW4_P1H2B-21" parent="R4k9TBgRJw4UW4_P1H2B-3">
          <mxGeometry relative="1" as="geometry">
            <mxPoint x="55" y="290" as="sourcePoint" />
            <Array as="points">
              <mxPoint x="85" y="320" />
            </Array>
          </mxGeometry>
        </mxCell>
        <mxCell id="R4k9TBgRJw4UW4_P1H2B-27" value="return False" style="html=1;verticalAlign=bottom;endArrow=open;dashed=1;endSize=8;rounded=0;edgeStyle=orthogonalEdgeStyle;" edge="1" parent="R4k9TBgRJw4UW4_P1H2B-3" source="R4k9TBgRJw4UW4_P1H2B-21" target="R4k9TBgRJw4UW4_P1H2B-9">
          <mxGeometry x="0.1757" y="20" relative="1" as="geometry">
            <mxPoint x="160" y="440" as="sourcePoint" />
            <mxPoint x="60" y="430" as="targetPoint" />
            <Array as="points">
              <mxPoint x="80" y="390" />
              <mxPoint x="80" y="430" />
            </Array>
            <mxPoint as="offset" />
          </mxGeometry>
        </mxCell>
        <mxCell id="R4k9TBgRJw4UW4_P1H2B-32" value="ValidarUsuario(dados_token)" style="html=1;align=left;spacingLeft=2;endArrow=block;rounded=0;edgeStyle=orthogonalEdgeStyle;curved=0;rounded=0;" edge="1" target="R4k9TBgRJw4UW4_P1H2B-31" parent="R4k9TBgRJw4UW4_P1H2B-3">
          <mxGeometry relative="1" as="geometry">
            <mxPoint x="55" y="550" as="sourcePoint" />
            <Array as="points">
              <mxPoint x="85" y="580" />
            </Array>
          </mxGeometry>
        </mxCell>
        <mxCell id="R4k9TBgRJw4UW4_P1H2B-64" value="" style="shape=umlDestroy;whiteSpace=wrap;html=1;strokeWidth=3;targetShapes=umlLifeline;" vertex="1" parent="R4k9TBgRJw4UW4_P1H2B-3">
          <mxGeometry x="40" y="930" width="20" height="20" as="geometry" />
        </mxCell>
        <mxCell id="R4k9TBgRJw4UW4_P1H2B-12" value="Alt" style="shape=umlFrame;whiteSpace=wrap;html=1;pointerEvents=0;recursiveResize=0;container=1;collapsible=0;width=170;" vertex="1" parent="R4k9TBgRJw4UW4_P1H2B-2">
          <mxGeometry x="40" y="180" width="280" height="150" as="geometry" />
        </mxCell>
        <mxCell id="R4k9TBgRJw4UW4_P1H2B-13" value="Token não encontrado" style="text;html=1;" vertex="1" parent="R4k9TBgRJw4UW4_P1H2B-12">
          <mxGeometry width="100" height="20" relative="1" as="geometry">
            <mxPoint x="20" y="40" as="offset" />
          </mxGeometry>
        </mxCell>
        <mxCell id="R4k9TBgRJw4UW4_P1H2B-14" value="Token encontrado" style="line;strokeWidth=1;dashed=1;labelPosition=center;verticalLabelPosition=bottom;align=left;verticalAlign=top;spacingLeft=20;spacingTop=15;html=1;whiteSpace=wrap;" vertex="1" parent="R4k9TBgRJw4UW4_P1H2B-12">
          <mxGeometry y="100" width="280" height="10" as="geometry" />
        </mxCell>
        <mxCell id="R4k9TBgRJw4UW4_P1H2B-24" value="Alt" style="shape=umlFrame;whiteSpace=wrap;html=1;pointerEvents=0;recursiveResize=0;container=1;collapsible=0;width=170;" vertex="1" parent="R4k9TBgRJw4UW4_P1H2B-2">
          <mxGeometry x="40" y="400" width="280" height="180" as="geometry" />
        </mxCell>
        <mxCell id="R4k9TBgRJw4UW4_P1H2B-25" value="Dados não encontrados" style="text;html=1;" vertex="1" parent="R4k9TBgRJw4UW4_P1H2B-24">
          <mxGeometry width="100" height="20" relative="1" as="geometry">
            <mxPoint x="20" y="40" as="offset" />
          </mxGeometry>
        </mxCell>
        <mxCell id="R4k9TBgRJw4UW4_P1H2B-26" value="Dados encontrados" style="line;strokeWidth=1;dashed=1;labelPosition=center;verticalLabelPosition=bottom;align=left;verticalAlign=top;spacingLeft=20;spacingTop=15;html=1;whiteSpace=wrap;" vertex="1" parent="R4k9TBgRJw4UW4_P1H2B-24">
          <mxGeometry y="110" width="280" height="10" as="geometry" />
        </mxCell>
        <mxCell id="R4k9TBgRJw4UW4_P1H2B-35" value="BuscarUsuarioPorId(dados_token.id_usuario)" style="html=1;verticalAlign=bottom;endArrow=block;curved=0;rounded=0;entryX=0;entryY=0.056;entryDx=0;entryDy=0;entryPerimeter=0;" edge="1" parent="R4k9TBgRJw4UW4_P1H2B-2" target="R4k9TBgRJw4UW4_P1H2B-42">
          <mxGeometry width="80" relative="1" as="geometry">
            <mxPoint x="200" y="660" as="sourcePoint" />
            <mxPoint x="450" y="660" as="targetPoint" />
          </mxGeometry>
        </mxCell>
        <mxCell id="R4k9TBgRJw4UW4_P1H2B-44" value="" style="shape=umlLifeline;perimeter=lifelinePerimeter;whiteSpace=wrap;html=1;container=1;dropTarget=0;collapsible=0;recursiveResize=0;outlineConnect=0;portConstraint=eastwest;newEdgeStyle={&quot;curved&quot;:0,&quot;rounded&quot;:0};participant=umlEntity;" vertex="1" parent="R4k9TBgRJw4UW4_P1H2B-2">
          <mxGeometry x="760" y="640" width="40" height="360" as="geometry" />
        </mxCell>
        <mxCell id="R4k9TBgRJw4UW4_P1H2B-46" value="" style="html=1;points=[[0,0,0,0,5],[0,1,0,0,-5],[1,0,0,0,5],[1,1,0,0,-5]];perimeter=orthogonalPerimeter;outlineConnect=0;targetShapes=umlLifeline;portConstraint=eastwest;newEdgeStyle={&quot;curved&quot;:0,&quot;rounded&quot;:0};" vertex="1" parent="R4k9TBgRJw4UW4_P1H2B-44">
          <mxGeometry x="15" y="80" width="10" height="190" as="geometry" />
        </mxCell>
        <mxCell id="R4k9TBgRJw4UW4_P1H2B-47" value="Alt" style="shape=umlFrame;whiteSpace=wrap;html=1;pointerEvents=0;recursiveResize=0;container=1;collapsible=0;width=170;" vertex="1" parent="R4k9TBgRJw4UW4_P1H2B-2">
          <mxGeometry x="40" y="760" width="800" height="250" as="geometry" />
        </mxCell>
        <mxCell id="R4k9TBgRJw4UW4_P1H2B-48" value="Usuário não encontrado" style="text;html=1;" vertex="1" parent="R4k9TBgRJw4UW4_P1H2B-47">
          <mxGeometry width="100" height="20" relative="1" as="geometry">
            <mxPoint x="20" y="40" as="offset" />
          </mxGeometry>
        </mxCell>
        <mxCell id="R4k9TBgRJw4UW4_P1H2B-49" value="Usuário encontrado" style="line;strokeWidth=1;dashed=1;labelPosition=center;verticalLabelPosition=bottom;align=left;verticalAlign=top;spacingLeft=20;spacingTop=15;html=1;whiteSpace=wrap;" vertex="1" parent="R4k9TBgRJw4UW4_P1H2B-47">
          <mxGeometry y="114" width="800" height="10" as="geometry" />
        </mxCell>
        <mxCell id="R4k9TBgRJw4UW4_P1H2B-50" value="return null" style="html=1;verticalAlign=bottom;endArrow=open;dashed=1;endSize=8;curved=0;rounded=0;" edge="1" parent="R4k9TBgRJw4UW4_P1H2B-47" target="R4k9TBgRJw4UW4_P1H2B-43">
          <mxGeometry relative="1" as="geometry">
            <mxPoint x="730" y="40" as="sourcePoint" />
            <mxPoint x="650" y="40" as="targetPoint" />
          </mxGeometry>
        </mxCell>
        <mxCell id="R4k9TBgRJw4UW4_P1H2B-57" value="" style="shape=umlDestroy;whiteSpace=wrap;html=1;strokeWidth=3;targetShapes=umlLifeline;" vertex="1" parent="R4k9TBgRJw4UW4_P1H2B-47">
          <mxGeometry x="730" y="150" width="20" height="20" as="geometry" />
        </mxCell>
        <mxCell id="R4k9TBgRJw4UW4_P1H2B-65" value="continue" style="html=1;verticalAlign=bottom;endArrow=block;curved=0;rounded=0;" edge="1" parent="R4k9TBgRJw4UW4_P1H2B-47" target="R4k9TBgRJw4UW4_P1H2B-72">
          <mxGeometry width="80" relative="1" as="geometry">
            <mxPoint x="150" y="220" as="sourcePoint" />
            <mxPoint x="230" y="220" as="targetPoint" />
          </mxGeometry>
        </mxCell>
        <mxCell id="R4k9TBgRJw4UW4_P1H2B-52" value="return status 401" style="html=1;verticalAlign=bottom;endArrow=open;dashed=1;endSize=8;curved=0;rounded=0;entryX=1;entryY=0.5;entryDx=0;entryDy=0;" edge="1" parent="R4k9TBgRJw4UW4_P1H2B-2" target="R4k9TBgRJw4UW4_P1H2B-71">
          <mxGeometry relative="1" as="geometry">
            <mxPoint x="185" y="859.0000000000002" as="sourcePoint" />
            <mxPoint x="3.840000000000032" y="857.8800000000001" as="targetPoint" />
            <Array as="points" />
          </mxGeometry>
        </mxCell>
        <mxCell id="R4k9TBgRJw4UW4_P1H2B-66" value="" style="ellipse;" vertex="1" parent="R4k9TBgRJw4UW4_P1H2B-2">
          <mxGeometry x="-10" y="260" width="20" height="20" as="geometry" />
        </mxCell>
        <mxCell id="R4k9TBgRJw4UW4_P1H2B-17" value="return status 403" style="html=1;verticalAlign=bottom;endArrow=open;dashed=1;endSize=8;curved=0;rounded=0;entryX=1;entryY=0.5;entryDx=0;entryDy=0;" edge="1" parent="R4k9TBgRJw4UW4_P1H2B-2" source="R4k9TBgRJw4UW4_P1H2B-9" target="R4k9TBgRJw4UW4_P1H2B-66">
          <mxGeometry relative="1" as="geometry">
            <mxPoint x="170" y="270" as="sourcePoint" />
            <mxPoint x="20" y="270" as="targetPoint" />
          </mxGeometry>
        </mxCell>
        <mxCell id="R4k9TBgRJw4UW4_P1H2B-67" value="" style="ellipse;" vertex="1" parent="R4k9TBgRJw4UW4_P1H2B-2">
          <mxGeometry x="-10" y="490" width="20" height="20" as="geometry" />
        </mxCell>
        <mxCell id="R4k9TBgRJw4UW4_P1H2B-28" value="return status 401" style="html=1;verticalAlign=bottom;endArrow=open;dashed=1;endSize=8;curved=0;rounded=0;" edge="1" parent="R4k9TBgRJw4UW4_P1H2B-2" source="R4k9TBgRJw4UW4_P1H2B-9">
          <mxGeometry relative="1" as="geometry">
            <mxPoint x="170" y="500" as="sourcePoint" />
            <mxPoint x="10" y="500" as="targetPoint" />
          </mxGeometry>
        </mxCell>
        <mxCell id="R4k9TBgRJw4UW4_P1H2B-71" value="" style="ellipse;" vertex="1" parent="R4k9TBgRJw4UW4_P1H2B-2">
          <mxGeometry x="-10" y="849" width="20" height="20" as="geometry" />
        </mxCell>
        <mxCell id="R4k9TBgRJw4UW4_P1H2B-72" value="" style="ellipse;" vertex="1" parent="R4k9TBgRJw4UW4_P1H2B-2">
          <mxGeometry x="870" y="970" width="20" height="20" as="geometry" />
        </mxCell>
        <mxCell id="R4k9TBgRJw4UW4_P1H2B-73" value="ValidarToken" style="html=1;verticalAlign=bottom;endArrow=block;curved=0;rounded=0;exitX=1;exitY=0.5;exitDx=0;exitDy=0;" edge="1" parent="R4k9TBgRJw4UW4_P1H2B-2" source="R4k9TBgRJw4UW4_P1H2B-74" target="R4k9TBgRJw4UW4_P1H2B-9">
          <mxGeometry width="80" relative="1" as="geometry">
            <mxPoint x="100" y="110" as="sourcePoint" />
            <mxPoint x="180" y="110" as="targetPoint" />
          </mxGeometry>
        </mxCell>
        <mxCell id="R4k9TBgRJw4UW4_P1H2B-74" value="" style="ellipse;" vertex="1" parent="R4k9TBgRJw4UW4_P1H2B-2">
          <mxGeometry x="-10" y="100" width="20" height="20" as="geometry" />
        </mxCell>
        <mxCell id="R4k9TBgRJw4UW4_P1H2B-42" value="UsuarioService" style="shape=umlLifeline;perimeter=lifelinePerimeter;whiteSpace=wrap;html=1;container=1;dropTarget=0;collapsible=0;recursiveResize=0;outlineConnect=0;portConstraint=eastwest;newEdgeStyle={&quot;curved&quot;:0,&quot;rounded&quot;:0};" vertex="1" parent="1">
          <mxGeometry x="500" y="680" width="100" height="360" as="geometry" />
        </mxCell>
        <mxCell id="R4k9TBgRJw4UW4_P1H2B-43" value="" style="html=1;points=[[0,0,0,0,5],[0,1,0,0,-5],[1,0,0,0,5],[1,1,0,0,-5]];perimeter=orthogonalPerimeter;outlineConnect=0;targetShapes=umlLifeline;portConstraint=eastwest;newEdgeStyle={&quot;curved&quot;:0,&quot;rounded&quot;:0};" vertex="1" parent="R4k9TBgRJw4UW4_P1H2B-42">
          <mxGeometry x="45" y="80" width="10" height="210" as="geometry" />
        </mxCell>
        <mxCell id="R4k9TBgRJw4UW4_P1H2B-63" value="" style="shape=umlDestroy;whiteSpace=wrap;html=1;strokeWidth=3;targetShapes=umlLifeline;" vertex="1" parent="R4k9TBgRJw4UW4_P1H2B-42">
          <mxGeometry x="40" y="290" width="20" height="20" as="geometry" />
        </mxCell>
        <mxCell id="R4k9TBgRJw4UW4_P1H2B-45" value="UsuarioModel" style="text;html=1;align=center;verticalAlign=middle;resizable=0;points=[];autosize=1;strokeColor=none;fillColor=none;" vertex="1" parent="1">
          <mxGeometry x="770" y="658" width="100" height="30" as="geometry" />
        </mxCell>
        <mxCell id="R4k9TBgRJw4UW4_P1H2B-40" value="SELECT * FROM usuarios&lt;div&gt;WHERE id_usuario = : id_usuario;&lt;/div&gt;" style="html=1;verticalAlign=bottom;endArrow=block;curved=0;rounded=0;" edge="1" target="R4k9TBgRJw4UW4_P1H2B-46" parent="1" source="R4k9TBgRJw4UW4_P1H2B-43">
          <mxGeometry relative="1" as="geometry">
            <mxPoint x="560" y="760" as="sourcePoint" />
            <mxPoint x="815" y="745" as="targetPoint" />
            <Array as="points">
              <mxPoint x="690" y="760" />
            </Array>
          </mxGeometry>
        </mxCell>
        <mxCell id="R4k9TBgRJw4UW4_P1H2B-51" value="return null" style="html=1;verticalAlign=bottom;endArrow=open;dashed=1;endSize=8;curved=0;rounded=0;" edge="1" parent="1" source="R4k9TBgRJw4UW4_P1H2B-43" target="R4k9TBgRJw4UW4_P1H2B-9">
          <mxGeometry relative="1" as="geometry">
            <mxPoint x="540" y="860" as="sourcePoint" />
            <mxPoint x="240" y="860" as="targetPoint" />
            <Array as="points">
              <mxPoint x="390" y="860" />
            </Array>
          </mxGeometry>
        </mxCell>
        <mxCell id="R4k9TBgRJw4UW4_P1H2B-54" value="return Usuario usuario&amp;nbsp;" style="html=1;verticalAlign=bottom;endArrow=open;dashed=1;endSize=8;curved=0;rounded=0;" edge="1" parent="1">
          <mxGeometry relative="1" as="geometry">
            <mxPoint x="815" y="950" as="sourcePoint" />
            <mxPoint x="555" y="950" as="targetPoint" />
          </mxGeometry>
        </mxCell>
        <mxCell id="R4k9TBgRJw4UW4_P1H2B-55" value="return Usuario usuario" style="html=1;verticalAlign=bottom;endArrow=open;dashed=1;endSize=8;curved=0;rounded=0;" edge="1" parent="1" target="R4k9TBgRJw4UW4_P1H2B-9">
          <mxGeometry x="0.0011" relative="1" as="geometry">
            <mxPoint x="545" y="969" as="sourcePoint" />
            <mxPoint x="310" y="969" as="targetPoint" />
            <mxPoint as="offset" />
          </mxGeometry>
        </mxCell>
      </root>
    </mxGraphModel>
  </diagram>
</mxfile>
